<?xml version="1.0" encoding="UTF-8" standalone="no"?>
<svg
   version="1.1"
   id="svg2"
   width="512"
   height="512"
   viewBox="0 0 512 512"
   sodipodi:docname="Shotgun_Shells.svg"
   inkscape:version="1.1.1 (3bf5ae0d25, 2021-09-20)"
   xmlns:inkscape="http://www.inkscape.org/namespaces/inkscape"
   xmlns:sodipodi="http://sodipodi.sourceforge.net/DTD/sodipodi-0.dtd"
   xmlns="http://www.w3.org/2000/svg"
   xmlns:svg="http://www.w3.org/2000/svg"
   xmlns:rdf="http://www.w3.org/1999/02/22-rdf-syntax-ns#"
   xmlns:cc="http://creativecommons.org/ns#"
   xmlns:dc="http://purl.org/dc/elements/1.1/">
  <metadata
     id="metadata8">
    <rdf:RDF>
      <cc:Work
         rdf:about="">
        <dc:format>image/svg+xml</dc:format>
        <dc:type
           rdf:resource="http://purl.org/dc/dcmitype/StillImage" />
      </cc:Work>
    </rdf:RDF>
  </metadata>
  <defs
     id="defs6" />
  <sodipodi:namedview
     pagecolor="#ffffff"
     bordercolor="#666666"
     borderopacity="1"
     objecttolerance="10"
     gridtolerance="10"
     guidetolerance="10"
     inkscape:pageopacity="0"
     inkscape:pageshadow="2"
     inkscape:window-width="1366"
     inkscape:window-height="697"
     id="namedview4"
     showgrid="false"
     inkscape:zoom="0.70710677"
     inkscape:cx="109.60155"
     inkscape:cy="311.83409"
     inkscape:window-x="-8"
     inkscape:window-y="-8"
     inkscape:window-maximized="1"
     inkscape:current-layer="layer1"
     inkscape:pagecheckerboard="true"
     inkscape:document-rotation="0">
    <inkscape:grid
       type="xygrid"
       id="grid821" />
  </sodipodi:namedview>
  <g
     inkscape:groupmode="layer"
     id="layer1"
     inkscape:label="Layer"
     style="display:inline">
    <g
       id="g845"
       transform="matrix(3.05,0,0,3.05,12,25.725)">
      <path
         style="fill:#801600;fill-opacity:0.75;stroke:#fe2c00;stroke-width:1px;stroke-linecap:butt;stroke-linejoin:miter;stroke-opacity:1"
         d="M 54.099974,12 H 24.039578 l -11.379752,19.886885 16,27.293115 c 5.008728,-0.0028 7.032534,-0.05024 9.746112,4.522295 l 18.294447,30.827213 c 2.652744,5.397115 -2.060517,9.743452 -1.76599,10.273112 l 19.511264,35.0882 h 11.266115 l 19.534406,-35.0882 c -2.85831,-6.103761 -2.61405,-7.296916 -0.74491,-10.273112 l 19.36046,-30.827213 c 3.32099,-5.287942 3.7355,-4.470617 8.106,-4.522295 L 147.20825,31.886885 135.84165,12 h -29.40177 c -0.41511,2.579544 -3.99417,6.000328 -7.135967,6.000328 H 60.137497 C 58.004796,18.000328 54.099974,14 54.099974,12 Z"
         id="path826"
         inkscape:connector-curvature="0"
         sodipodi:nodetypes="ccccscscccssccccssc" />
      <path
         style="display:inline;fill:#fe2c00;fill-opacity:1;stroke:none;stroke-width:1.00333px;stroke-linecap:butt;stroke-linejoin:miter;stroke-opacity:1"
         d="M 18.380859,0 0,31.886885 68,151 H 92 L 160,31.886885 141,0 Z m 40.52411,4.2272131 4.158203,5.312459 h 37.029298 l 3.75976,-5.312459 h 33.87784 l 16.68854,27.6596719 -18.53384,33.20623 h -6.23829 l -19.43554,33.896393 3.19922,5.729182 -23.433598,42.33526 H 70.380859 L 46.466797,104.71869 49.666016,98.989508 30.951172,65.093115 h -7.03711 L 4.7988281,31.886885 20.841415,4.2272131 Z"
         id="path823"
         inkscape:connector-curvature="0"
         sodipodi:nodetypes="cccccccccccccccccccccccccc" />
      <g
         id="g12868"
         style="fill:#ff957f;fill-opacity:1;stroke:none">
        <path
           sodipodi:nodetypes="ccccc"
           inkscape:connector-curvature="0"
           id="path12830"
           d="M 43,26 V 50 H 76 V 26 Z"
           style="fill:#ff957f;fill-opacity:1;stroke:none;stroke-width:1px;stroke-linecap:butt;stroke-linejoin:miter;stroke-opacity:1" />
        <path
           sodipodi:nodetypes="ccccc"
           inkscape:connector-curvature="0"
           id="path12830-8"
           d="m 85,26 v 24 h 33 V 26 Z"
           style="fill:#ff957f;fill-opacity:1;stroke:none;stroke-width:1px;stroke-linecap:butt;stroke-linejoin:miter;stroke-opacity:1" />
        <path
           inkscape:connector-curvature="0"
           id="path12847"
           d="M 43,54 V 70.418659 L 56.868023,93.8125 c 1.521133,2.71209 1.967854,6.51941 -1.581967,10.90619 L 65.223555,122.25 76,122.24984 V 54 h -9.688525 l -3,7 h -7 l -3,-7 z"
           style="fill:#ff957f;fill-opacity:1;stroke:none;stroke-width:1px;stroke-linecap:butt;stroke-linejoin:miter;stroke-opacity:1"
           sodipodi:nodetypes="cccccccccccc" />
        <path
           sodipodi:nodetypes="cccccccccccc"
           inkscape:connector-curvature="0"
           id="path12847-8"
           d="m 118,54 0,18.051678 -13.75462,22.200407 c -2.72868,4.003991 -1.4263,6.178615 0.4059,10.575405 l -9.688068,17.42235 H 85 V 54 h 10.506949 l 3,7 h 7.000001 l 3,-7 z"
           style="fill:#ff957f;fill-opacity:1;stroke:none;stroke-width:1px;stroke-linecap:butt;stroke-linejoin:miter;stroke-opacity:1" />
      </g>
    </g>
  </g>
</svg>
