<?xml version="1.0" encoding="UTF-8" standalone="no"?>
<svg
   version="1.1"
   id="svg2"
   width="512"
   height="512"
   viewBox="0 0 512 512"
   sodipodi:docname="Energy_Ammo.svg"
   inkscape:version="1.1.1 (3bf5ae0d25, 2021-09-20)"
   xmlns:inkscape="http://www.inkscape.org/namespaces/inkscape"
   xmlns:sodipodi="http://sodipodi.sourceforge.net/DTD/sodipodi-0.dtd"
   xmlns="http://www.w3.org/2000/svg"
   xmlns:svg="http://www.w3.org/2000/svg"
   xmlns:rdf="http://www.w3.org/1999/02/22-rdf-syntax-ns#"
   xmlns:cc="http://creativecommons.org/ns#"
   xmlns:dc="http://purl.org/dc/elements/1.1/">
  <metadata
     id="metadata8">
    <rdf:RDF>
      <cc:Work
         rdf:about="">
        <dc:format>image/svg+xml</dc:format>
        <dc:type
           rdf:resource="http://purl.org/dc/dcmitype/StillImage" />
      </cc:Work>
    </rdf:RDF>
  </metadata>
  <defs
     id="defs6" />
  <sodipodi:namedview
     pagecolor="#ffffff"
     bordercolor="#666666"
     borderopacity="1"
     objecttolerance="10"
     gridtolerance="10"
     guidetolerance="10"
     inkscape:pageopacity="0"
     inkscape:pageshadow="2"
     inkscape:window-width="1366"
     inkscape:window-height="697"
     id="namedview4"
     showgrid="false"
     inkscape:zoom="1"
     inkscape:cx="295.5"
     inkscape:cy="216.5"
     inkscape:window-x="-8"
     inkscape:window-y="-8"
     inkscape:window-maximized="1"
     inkscape:current-layer="layer3"
     inkscape:pagecheckerboard="true"
     fit-margin-top="0"
     fit-margin-left="0"
     fit-margin-right="0"
     fit-margin-bottom="0"
     inkscape:document-rotation="0">
    <inkscape:grid
       type="xygrid"
       id="grid833"
       originx="1.03615"
       originy="0.02277946" />
  </sodipodi:namedview>
  <g
     inkscape:groupmode="layer"
     id="layer3"
     inkscape:label="Layer 3"
     style="display:inline"
     transform="translate(1.03615,0.0397195)">
    <g
       id="g854"
       transform="matrix(3.0833053,0,0,3.0833053,-7.0079069,13.560911)">
      <g
         style="display:inline"
         inkscape:label="Layer"
         id="layer1"
         transform="matrix(0.98919818,0,0,0.99337748,5.8287309,3.5583144)">
        <path
           sodipodi:nodetypes="ccccscscccssccccssc"
           inkscape:connector-curvature="0"
           id="path826"
           d="M 54.099974,12.259931 H 24.039578 l -11.379752,19.960007 16,26.959867 c 5.008728,-0.0028 7.032551,-0.05001 9.746112,4.522532 l 18.294447,30.827461 c 2.652744,5.397115 -2.060516,9.743332 -1.76599,10.272992 l 19.511264,35.08815 h 11.266115 l 19.534406,-35.08815 c -2.85831,-6.103766 -2.4976,-7.226858 -0.74491,-10.272992 l 17.73759,-30.827461 c 2.27912,-3.961045 5.47429,-5.565746 9.72887,-4.522532 L 147.20825,32.219938 135.84165,12 h -29.40177 c -0.41511,2.579544 -3.99425,5.97728 -7.135967,6.000331 l -39.166416,0.287361 c -2.132644,0.01565 -6.037523,-4.027761 -6.037523,-6.027761 z"
           style="fill:#616d1d;fill-opacity:0.75;stroke:#cee255;stroke-width:1px;stroke-linecap:butt;stroke-linejoin:miter;stroke-opacity:1" />
        <path
           inkscape:connector-curvature="0"
           id="path823"
           d="M 18.380859,0 0,32.219938 68,151 l 24,7e-5 L 160,32.219938 141,-4.8511868e-8 Z m 38.884766,3.7435281 4.158203,5.8768238 37.029297,-0.080613 3.759765,-5.7962108 h 36.80926 l 16.21613,28.4764099 -19.35351,32.873244 -6.23829,0.564174 -19.43554,33.332288 3.19922,5.813146 -23.433598,42.25116 -19.595703,-1.6e-4 -23.914062,-42.251 3.199219,-5.813146 L 30.951172,65.657356 23.914062,65.093182 4.7988281,32.219938 20.609577,3.7435281 Z"
           style="display:inline;fill:#cee255;fill-opacity:1;stroke:none;stroke-width:1.00333px;stroke-linecap:butt;stroke-linejoin:miter;stroke-opacity:1"
           sodipodi:nodetypes="cccccccccccccccccccccccccc" />
        <g
           transform="matrix(0,1.1586075,-1.3602268,0,142.72888,-16.392792)"
           id="g850"
           style="display:inline;fill:#b5e5d3;fill-opacity:1">
          <g
             style="fill:#b5e5d3;fill-opacity:1"
             id="g866" />
        </g>
      </g>
      <path
         style="fill:#e2ee9c;fill-opacity:1;stroke:none;stroke-width:1px;stroke-linecap:butt;stroke-linejoin:miter;stroke-opacity:1"
         d="M 107.32796,26.45587 55.885946,77.013901 h 18.738329 l -12.283414,33.572159 1.353054,2.41249 48.760575,-47.474916 H 93.362605 Z"
         id="path873"
         inkscape:connector-curvature="0"
         sodipodi:nodetypes="cccccccc" />
      <path
         style="fill:#e2ee9c;fill-opacity:1;stroke:none;stroke-width:1px;stroke-linecap:butt;stroke-linejoin:miter;stroke-opacity:1"
         d="m 104.85998,99.058314 2.0625,6.937496 c -12.000309,8.1906 -21.434521,8.20694 -34.062499,5.1875 l 5.875,-5.8125 c 12.744494,1.90669 18.782988,-1.10159 26.124999,-6.312496 z"
         id="path875"
         inkscape:connector-curvature="0"
         sodipodi:nodetypes="ccccc" />
      <path
         style="fill:#e2ee9c;fill-opacity:1;stroke:none;stroke-width:1px;stroke-linecap:butt;stroke-linejoin:miter;stroke-opacity:1"
         d="M 109.55594,95.798178 125.29373,68.383282 C 124.023,56.873121 120.12937,46.645304 109.00734,38.653463 l -2.65165,6.805903 c 20.10199,19.133567 12.14408,34.663082 3.20025,50.338812 z"
         id="path877"
         inkscape:connector-curvature="0"
         sodipodi:nodetypes="ccccc" />
      <path
         style="fill:#e2ee9c;fill-opacity:1;stroke:none;stroke-width:1px;stroke-linecap:butt;stroke-linejoin:miter;stroke-opacity:1"
         d="m 94.797481,31.683314 -5.5,6.000001 c -8.681708,-1.130449 -17.109096,0.473052 -25.125,6.5 l -2.625,-7.25 c 12.5484,-7.50562 22.996382,-6.759597 33.25,-5.250001 z"
         id="path879"
         inkscape:connector-curvature="0"
         sodipodi:nodetypes="ccccc" />
      <path
         style="fill:#e2ee9c;fill-opacity:1;stroke:none;stroke-width:1px;stroke-linecap:butt;stroke-linejoin:miter;stroke-opacity:1"
         d="m 46.672481,53.183315 7.75,1.875 c -4.21164,7.65383 -6.478955,14.164751 -3.411612,22.976601 L 43.849258,65.946529 c -0.142701,-5.853431 1.412707,-8.307678 2.823223,-12.763214 z"
         id="path881"
         inkscape:connector-curvature="0"
         sodipodi:nodetypes="ccccc" />
      <path
         style="fill:#e2ee9c;fill-opacity:1;stroke:none;stroke-width:1px;stroke-linecap:butt;stroke-linejoin:miter;stroke-opacity:1"
         d="m 55.885946,34.49921 -11.136932,12.81631 13.081475,2.916816 2.916816,-3.093592 z"
         id="path883"
         inkscape:connector-curvature="0" />
    </g>
  </g>
  <g
     inkscape:groupmode="layer"
     id="layer2"
     inkscape:label="Layer 4" />
</svg>
